<mxfile host="app.diagrams.net" modified="2024-06-28T04:12:27.213Z" agent="Mozilla/5.0 (Windows NT 10.0; Win64; x64) AppleWebKit/537.36 (KHTML, like Gecko) Chrome/126.0.0.0 Safari/537.36" etag="m1pYIPzyLobso4KXQCvk" version="24.6.4" type="device">
  <diagram name="Trang-1" id="yoXLVgWtQdy2Vr29K_hz">
    <mxGraphModel dx="378" dy="393" grid="1" gridSize="10" guides="1" tooltips="1" connect="1" arrows="1" fold="1" page="1" pageScale="1" pageWidth="827" pageHeight="1169" math="0" shadow="0">
      <root>
        <mxCell id="0" />
        <mxCell id="1" parent="0" />
        <mxCell id="OL2t-WgGGE7nGEdEhSRI-12" value="Book" style="swimlane;fontStyle=1;align=center;verticalAlign=top;childLayout=stackLayout;horizontal=1;startSize=26;horizontalStack=0;resizeParent=1;resizeParentMax=0;resizeLast=0;collapsible=1;marginBottom=0;whiteSpace=wrap;html=1;" vertex="1" parent="1">
          <mxGeometry x="380" y="340" width="290" height="368" as="geometry" />
        </mxCell>
        <mxCell id="OL2t-WgGGE7nGEdEhSRI-13" value="- idBook: int&lt;div&gt;- bookName: String&lt;/div&gt;&lt;div&gt;- author: String&lt;/div&gt;&lt;div&gt;- price: float&lt;/div&gt;&lt;div&gt;- typeOf: String&lt;/div&gt;&lt;div&gt;- quantity: int&lt;/div&gt;" style="text;strokeColor=none;fillColor=none;align=left;verticalAlign=top;spacingLeft=4;spacingRight=4;overflow=hidden;rotatable=0;points=[[0,0.5],[1,0.5]];portConstraint=eastwest;whiteSpace=wrap;html=1;" vertex="1" parent="OL2t-WgGGE7nGEdEhSRI-12">
          <mxGeometry y="26" width="290" height="94" as="geometry" />
        </mxCell>
        <mxCell id="OL2t-WgGGE7nGEdEhSRI-14" value="" style="line;strokeWidth=1;fillColor=none;align=left;verticalAlign=middle;spacingTop=-1;spacingLeft=3;spacingRight=3;rotatable=0;labelPosition=right;points=[];portConstraint=eastwest;strokeColor=inherit;" vertex="1" parent="OL2t-WgGGE7nGEdEhSRI-12">
          <mxGeometry y="120" width="290" height="8" as="geometry" />
        </mxCell>
        <mxCell id="OL2t-WgGGE7nGEdEhSRI-15" value="&lt;div&gt;+ Book()&lt;/div&gt;&lt;div&gt;+ Book(int:idBook, String:bookName, String: author,&lt;/div&gt;&lt;div&gt;float: price, String: typeOf, int: quantity)&lt;/div&gt;+ getIDBook(): int&lt;div&gt;+ setIDBook(idBook: int): void&lt;/div&gt;&lt;div&gt;+ getBookName(): String&amp;nbsp;&lt;/div&gt;&lt;div&gt;+ setBookName(bookName: String): void&lt;/div&gt;&lt;div&gt;+ getAuthor(): String&amp;nbsp;&lt;/div&gt;&lt;div&gt;+ setAuthor(author: String): void&lt;/div&gt;&lt;div&gt;+ getPrice(): float&lt;/div&gt;&lt;div&gt;+ setPrice(price: float): void&lt;/div&gt;&lt;div&gt;+ getTypeOf(): String&lt;/div&gt;&lt;div&gt;+ setTypeOf(typeOf: String): void&lt;/div&gt;&lt;div&gt;+ getQuantity(): int&lt;/div&gt;&lt;div&gt;+ setQuantity(quantity: int): void&lt;/div&gt;&lt;div&gt;&lt;br&gt;&lt;/div&gt;&lt;div&gt;&lt;br&gt;&lt;/div&gt;" style="text;strokeColor=none;fillColor=none;align=left;verticalAlign=top;spacingLeft=4;spacingRight=4;overflow=hidden;rotatable=0;points=[[0,0.5],[1,0.5]];portConstraint=eastwest;whiteSpace=wrap;html=1;" vertex="1" parent="OL2t-WgGGE7nGEdEhSRI-12">
          <mxGeometry y="128" width="290" height="240" as="geometry" />
        </mxCell>
      </root>
    </mxGraphModel>
  </diagram>
</mxfile>
